<svg width="191" height="71" viewBox="0 0 191 71" fill="none" xmlns="http://www.w3.org/2000/svg">
<path d="M190.526 62.8666C188.739 62.5844 186.857 62.3962 184.975 62.114C183.093 61.9258 181.306 61.5495 179.424 61.4554C177.542 61.3613 175.755 61.2672 173.873 61.079C172.932 60.985 171.991 60.985 171.05 60.8909H168.228C166.346 60.8909 164.464 60.8909 162.582 60.8909C160.701 60.8909 158.819 60.985 156.937 60.985L151.292 61.079L145.647 61.2672C138.12 61.5495 130.593 61.9258 123.066 62.114C115.539 62.2081 108.012 62.3962 100.485 62.4903L89.1947 62.6785C85.4312 62.7726 81.6677 62.9607 77.9043 63.1489C70.3773 63.5252 62.8503 63.8075 55.3234 64.1838C51.5599 64.372 47.7964 64.5602 44.127 64.7483C40.3636 64.9365 36.6942 65.1247 32.9307 65.2187C29.1672 65.3128 25.4978 65.4069 21.7343 65.501C17.9709 65.5951 14.3015 65.501 10.6321 65.0306V64.9365C14.3015 64.2779 18.065 64.0897 21.7343 64.0897C25.4037 64.0897 29.1672 63.9956 32.9307 63.9956C36.6942 63.9956 40.3636 63.8075 44.127 63.7134C47.8905 63.6193 51.654 63.5252 55.3234 63.4311C62.8503 63.243 70.3773 62.9607 77.9043 62.7726C81.6677 62.6785 85.4312 62.4903 89.1947 62.3962L100.485 62.2081C108.012 62.0199 115.539 61.9258 123.066 61.7376C130.593 61.4554 138.12 61.0791 145.647 60.7968L151.292 60.6086L156.937 60.5146C158.819 60.5146 160.701 60.4205 162.582 60.5146C164.464 60.6086 166.346 60.6086 168.228 60.7027L171.05 60.7968C171.991 60.7968 172.932 60.8909 173.873 60.985C175.755 61.0791 177.542 61.2672 179.424 61.3613C181.306 61.4554 183.093 61.7376 184.975 61.9258C186.857 62.3021 188.739 62.5844 190.526 62.8666Z" fill="#C1A5FF"/>
<path d="M163.241 56.1871C163.899 56.5634 164.558 56.9397 165.311 57.222C166.063 57.4101 166.816 57.5983 167.569 57.8806L169.827 58.4451C170.58 58.5392 171.332 58.7273 172.179 58.8214C172.932 58.9155 173.778 58.9155 174.531 59.0096C175.284 59.0096 176.131 59.0096 176.883 58.9155C177.636 58.9155 178.483 58.8214 179.236 58.8214C179.988 58.9155 180.835 58.4451 181.494 59.5741V59.6681C180.647 60.7031 179.894 60.1386 179.141 60.1386C178.389 60.0445 177.542 59.9504 176.789 59.7622C175.19 59.48 173.684 59.2918 172.085 59.1977L169.733 58.9155C168.98 58.7273 168.133 58.6332 167.381 58.4451C166.628 58.1628 165.875 57.8806 165.217 57.5042C164.652 56.9397 163.994 56.5634 163.241 56.1871Z" fill="#C1A5FF"/>
<path d="M89.3825 41.2278C87.3126 39.1579 85.4308 36.8058 84.1136 34.1715C82.7964 31.5371 82.2319 28.5264 82.7023 25.5158C83.0786 22.5992 84.49 19.7766 86.2776 17.4245C88.0653 14.9784 90.3233 13.0026 92.6755 11.1209C97.4739 7.54575 102.931 4.81733 108.576 2.93565C114.221 1.05397 120.243 -0.169122 126.265 0.0190459C127.017 0.0190459 127.77 0.11313 128.523 0.207213C129.275 0.207213 130.028 0.395389 130.781 0.583556C131.533 0.67764 132.192 0.95988 132.945 1.14805C133.697 1.33622 134.356 1.52438 135.109 1.80664C137.931 2.74747 140.754 3.78241 143.388 5.28775C146.023 6.69901 148.469 8.4866 150.633 10.6505C152.797 12.7204 154.585 15.2606 155.902 17.9891C158.63 23.3518 159.759 29.4673 160.23 35.3946C160.418 38.4052 160.512 41.3218 160.418 44.3325C160.324 47.3432 160.136 50.2598 159.383 53.1764H159.289C158.819 50.1657 158.913 47.2491 158.913 44.3325C159.007 41.4159 159.007 38.4052 158.819 35.4886C158.536 29.6554 157.595 23.7282 155.055 18.3654C153.738 15.731 152.138 13.1908 150.069 11.1209C147.999 8.95701 145.646 7.16942 143.012 5.75816C140.378 4.25282 137.649 3.12381 134.826 2.27705C134.074 2.08889 133.415 1.80664 132.662 1.61847C131.91 1.4303 131.251 1.14806 130.498 1.05398C129.746 0.959893 128.993 0.77171 128.334 0.677627C127.582 0.583543 126.829 0.489467 126.076 0.489467C120.055 0.301299 114.127 1.52439 108.482 3.40607C102.837 5.38183 97.3798 8.01617 92.6755 11.5914C90.3233 13.3789 88.1593 15.4488 86.2776 17.8009C84.49 20.153 83.0786 22.7873 82.6082 25.7039C82.0437 28.6205 82.6082 31.6312 83.8314 34.3596C85.4308 36.8058 87.3126 39.0638 89.3825 41.2278Z" fill="#C1A5FF"/>
<path d="M43.7505 58.6329C42.5273 57.8802 41.3983 56.8453 40.6456 55.6222C39.8929 54.3991 39.4225 52.9879 39.2343 51.4825C38.858 48.5659 39.4225 45.5553 40.5515 42.8268C41.5865 40.0984 43.0919 37.4641 44.7854 35.112C45.6322 33.8889 46.6672 32.7599 47.7021 31.819C48.7371 30.7841 49.9602 29.8433 51.2774 29.2788C54.0059 27.9616 56.9226 27.3971 59.8393 27.303C62.756 27.2089 65.7668 27.6793 68.5894 28.6202C71.412 29.561 74.0464 31.1604 76.1164 33.4185C77.1513 34.5475 77.9981 35.8646 78.5626 37.2759C79.1271 38.6872 79.4094 40.2866 78.939 41.7919H78.8449C78.1863 40.3807 77.7159 39.1576 77.2454 37.8404C76.775 36.5232 76.0223 35.3942 75.1755 34.2652C73.3878 32.1013 70.9416 30.5019 68.3072 29.3728C62.9442 27.2089 56.6404 27.1148 51.3715 29.561C50.0543 30.1255 48.9253 31.0664 47.7962 32.1013C46.7613 33.1362 45.8204 34.2652 44.9736 35.3942C43.28 37.7463 41.8687 40.3807 40.8338 43.1091C39.8929 45.8375 39.1402 48.66 39.3284 51.5766C39.4225 52.9879 39.7988 54.4932 40.5515 55.7163C41.3983 56.8453 42.5273 57.8802 43.7505 58.6329Z" fill="#C1A5FF"/>
<path d="M0 70.7697C1.97582 70.1111 3.95164 69.4525 5.83337 68.6057C7.71511 67.759 9.59687 66.8181 11.5727 66.0655C15.4303 64.466 19.3819 62.9607 23.5217 62.114C25.5916 61.7376 27.6616 61.3613 29.7315 61.2672C30.296 61.1731 30.7664 61.2672 31.331 61.1731H32.2718C32.2718 61.1731 32.2718 61.079 32.3659 60.985L32.46 60.2323C32.5541 59.95 32.6482 59.6678 32.6482 59.4796C32.7422 59.1974 32.8363 58.9151 32.9304 58.7269C33.0245 58.4447 33.1186 58.2565 33.3068 57.9743C34.3417 55.9985 36.3176 54.4932 38.6697 54.305C39.7988 54.2109 40.9278 54.3991 41.9628 54.8695C42.4332 55.0577 42.9977 55.3399 43.3741 55.8104C43.8445 56.1867 44.1268 56.6571 44.3149 57.2216C43.1859 57.0334 42.3391 56.563 41.4923 56.1867C40.6455 55.8104 39.7047 55.6222 38.7638 55.6222C36.8821 55.6222 35.0944 56.6571 34.0595 58.3506C33.9654 58.5388 33.8713 58.821 33.6831 59.0092C33.589 59.1974 33.495 59.4796 33.4009 59.6678C33.3068 59.95 33.2127 60.1382 33.1186 60.4205L32.9304 61.1731L32.8363 61.4554V61.5495C32.8363 61.6435 32.8363 61.6436 32.7422 61.6436H31.331C30.7664 61.6436 30.296 61.5495 29.7315 61.6436C27.6616 61.6436 25.5916 61.9258 23.5217 62.3021C19.3819 63.1489 15.5243 64.7483 11.6668 66.3477C9.78504 67.1945 7.8092 67.9472 5.83337 68.6057C3.85755 69.4525 1.97582 70.1111 0 70.7697Z" fill="#C1A5FF"/>
</svg>
