<svg width="31" height="30" viewBox="0 0 31 30" fill="none" xmlns="http://www.w3.org/2000/svg">
<path fill-rule="evenodd" clip-rule="evenodd" d="M2.17375 10.8777C1.65137 12.0409 1.65137 13.357 1.65137 15.9891V16.5955C1.65137 22.2074 1.65137 25.0134 3.39477 26.7568C5.13818 28.5002 7.94415 28.5002 13.5561 28.5002H16.5323C22.1442 28.5002 24.9502 28.5002 26.6936 26.7568C28.437 25.0134 28.437 22.2074 28.437 16.5955V15.9891C28.437 13.357 28.437 12.0409 27.9146 10.8777C27.3922 9.71442 26.4086 8.84008 24.4413 7.0914L22.9533 5.76865C19.1893 2.42288 17.3073 0.75 15.0442 0.75C12.7811 0.75 10.8991 2.42288 7.13511 5.76865L5.64702 7.0914C3.67976 8.84008 2.69613 9.71442 2.17375 10.8777ZM7.5102 13.3374C7.19804 14.0475 7.19804 14.8471 7.19804 16.4463V16.6156C7.19804 20.0967 7.19804 21.8373 8.27949 22.9188C9.36095 24.0002 11.1015 24.0002 14.5827 24.0002H15.5058C18.9869 24.0002 20.7275 24.0002 21.809 22.9188C22.8904 21.8373 22.8904 20.0967 22.8904 16.6156V16.4463C22.8904 14.8471 22.8904 14.0475 22.5783 13.3374C22.2661 12.6273 21.677 12.0866 20.4987 11.0054L20.0371 10.5818C17.6668 8.4067 16.4816 7.31914 15.0442 7.31914C13.6069 7.31914 12.4217 8.4067 10.0513 10.5818L9.5898 11.0054C8.41151 12.0866 7.82237 12.6273 7.5102 13.3374Z" fill="#191A23"/>
<mask id="mask0_4865_4341" style="mask-type:alpha" maskUnits="userSpaceOnUse" x="1" y="0" width="28" height="29">
<path fill-rule="evenodd" clip-rule="evenodd" d="M2.17375 10.8777C1.65137 12.0409 1.65137 13.357 1.65137 15.9891V16.5955C1.65137 22.2074 1.65137 25.0134 3.39477 26.7568C5.13818 28.5002 7.94415 28.5002 13.5561 28.5002H16.5323C22.1442 28.5002 24.9502 28.5002 26.6936 26.7568C28.437 25.0134 28.437 22.2074 28.437 16.5955V15.9891C28.437 13.357 28.437 12.0409 27.9146 10.8777C27.3922 9.71442 26.4086 8.84008 24.4413 7.0914L22.9533 5.76865C19.1893 2.42288 17.3073 0.75 15.0442 0.75C12.7811 0.75 10.8991 2.42288 7.13511 5.76865L5.64702 7.0914C3.67976 8.84008 2.69613 9.71442 2.17375 10.8777ZM7.5102 13.3374C7.19804 14.0475 7.19804 14.8471 7.19804 16.4463V16.6156C7.19804 20.0967 7.19804 21.8373 8.27949 22.9188C9.36095 24.0002 11.1015 24.0002 14.5827 24.0002H15.5058C18.9869 24.0002 20.7275 24.0002 21.809 22.9188C22.8904 21.8373 22.8904 20.0967 22.8904 16.6156V16.4463C22.8904 14.8471 22.8904 14.0475 22.5783 13.3374C22.2661 12.6273 21.677 12.0866 20.4987 11.0054L20.0371 10.5818C17.6668 8.4067 16.4816 7.31914 15.0442 7.31914C13.6069 7.31914 12.4217 8.4067 10.0513 10.5818L9.5898 11.0054C8.41151 12.0866 7.82237 12.6273 7.5102 13.3374Z" fill="#B592FF"/>
</mask>
<g mask="url(#mask0_4865_4341)">
<circle cx="22.2765" cy="7.87508" r="12.3751" fill="#B592FF"/>
<path d="M11.075 15.6035C12.4585 15.6035 13.1502 15.6035 13.7211 15.7406C15.5348 16.176 16.9509 17.5921 17.3864 19.4059C17.5234 19.9767 17.5234 20.6685 17.5234 22.0519C17.5234 23.4354 17.5234 24.1271 17.3864 24.698C16.9509 26.5117 15.5348 27.9278 13.7211 28.3632C13.1502 28.5003 12.4585 28.5003 11.075 28.5003L9.58696 28.5003C6.80892 28.5003 5.41991 28.5003 4.35884 27.9597C3.4255 27.4841 2.66667 26.7253 2.19111 25.7919C1.65047 24.7309 1.65047 23.3418 1.65047 20.5638L1.65047 15.6035L11.075 15.6035Z" fill="#FDA5D6"/>
</g>
</svg>
