<svg width="21" height="20" viewBox="0 0 21 20" fill="none" xmlns="http://www.w3.org/2000/svg">
<path d="M13.583 1.54175C13.6131 1.54175 13.6443 1.55425 13.6699 1.57983C13.6956 1.60548 13.708 1.6366 13.708 1.66675V3.42261L14.1621 3.4646C15.1939 3.56014 15.9059 3.9087 16.3799 4.41187C16.8394 4.89981 17.1184 5.58146 17.207 6.44995H3.29297C3.38157 5.58139 3.66052 4.89982 4.12012 4.41187C4.59409 3.9087 5.30611 3.56013 6.33789 3.4646L6.79199 3.42261V1.66675C6.79199 1.6367 6.80363 1.60543 6.8291 1.57983C6.85475 1.55419 6.88684 1.54175 6.91699 1.54175C6.947 1.54187 6.97839 1.55432 7.00391 1.57983C7.02939 1.60543 7.04199 1.63669 7.04199 1.66675V3.41675H13.458V1.66675C13.458 1.63664 13.4705 1.60546 13.4961 1.57983C13.5217 1.55424 13.5529 1.5418 13.583 1.54175Z" fill="#191A23" stroke="#191A23"/>
<path d="M3.58301 8.69995H16.917C17.0989 8.70013 17.2498 8.85102 17.25 9.03296V14.1667C17.25 15.34 16.9561 16.2416 16.3936 16.8474C15.8372 17.4464 14.9458 17.8337 13.583 17.8337H6.91699C5.55421 17.8337 4.66281 17.4464 4.10645 16.8474C3.5439 16.2416 3.25002 15.34 3.25 14.1667V9.03296C3.25018 8.85102 3.40107 8.70013 3.58301 8.69995ZM7.58105 13.2732C7.35678 13.2313 7.12571 13.2456 6.9082 13.322L6.83691 13.3503C6.65582 13.4201 6.52118 13.5173 6.40723 13.6199L6.39258 13.6335L6.37891 13.6482C6.14697 13.8931 6 14.2308 6 14.5837C6.00013 14.9366 6.147 15.2745 6.37891 15.5193L6.39258 15.533L6.40723 15.5466C6.51844 15.6467 6.64966 15.741 6.82422 15.8103V15.8113C6.82727 15.8126 6.83091 15.813 6.83398 15.8142C6.83505 15.8146 6.83584 15.8157 6.83691 15.8162V15.8152C6.98512 15.8754 7.15382 15.9167 7.33301 15.9167C7.43494 15.9167 7.52643 15.9015 7.57031 15.8953L7.58203 15.8933C7.68587 15.876 7.78307 15.8416 7.87305 15.7966C7.93779 15.7701 7.99934 15.7395 8.05664 15.7029L8.05762 15.7039C8.06056 15.7021 8.06255 15.6988 8.06543 15.697C8.06907 15.6947 8.07354 15.6936 8.07715 15.6912L8.07617 15.6892C8.12479 15.6579 8.16511 15.6273 8.18652 15.6091C8.19854 15.5989 8.21415 15.5855 8.2207 15.5798C8.22973 15.5721 8.23427 15.5676 8.2373 15.5652L8.26465 15.5437L8.28809 15.5193C8.51999 15.2745 8.66687 14.9366 8.66699 14.5837C8.66699 14.2308 8.51993 13.8931 8.28809 13.6482L8.26465 13.6228L8.2373 13.6013L8.1748 13.5515C8.15397 13.5348 8.13314 13.5174 8.1123 13.5007L8.0957 13.488L8.07715 13.4753C8.03624 13.4481 7.99306 13.4235 7.94824 13.4011L7.80859 13.3425C7.74123 13.3141 7.67118 13.2897 7.59668 13.2761H7.59766C7.59477 13.2755 7.59175 13.2757 7.58887 13.2751C7.58661 13.2748 7.58429 13.2736 7.58203 13.2732H7.58105ZM10.25 13.2605C9.9616 13.2605 9.65508 13.3488 9.40723 13.5466L9.30469 13.6375L9.29492 13.6482C9.06316 13.8931 8.91699 14.2309 8.91699 14.5837C8.91712 14.9366 9.06302 15.2745 9.29492 15.5193L9.30469 15.5291L9.31445 15.5378C9.55935 15.7698 9.89696 15.9167 10.25 15.9167C10.603 15.9167 10.9407 15.7698 11.1855 15.5378L11.1953 15.5291L11.2051 15.5193C11.437 15.2745 11.5829 14.9366 11.583 14.5837C11.583 14.2309 11.4368 13.8931 11.2051 13.6482V13.6472L11.1953 13.6384L11.0928 13.5466C10.8449 13.3488 10.5384 13.2605 10.25 13.2605ZM13.167 13.2605C12.8376 13.2605 12.4839 13.3755 12.2217 13.6375L12.2119 13.6482C11.9801 13.8931 11.833 14.2308 11.833 14.5837C11.8331 14.9366 11.98 15.2745 12.2119 15.5193L12.2217 15.5291L12.2314 15.5378C12.4763 15.7698 12.814 15.9167 13.167 15.9167C13.5199 15.9167 13.8577 15.7698 14.1025 15.5378L14.1123 15.5291L14.1211 15.5193C14.353 15.2745 14.4999 14.9366 14.5 14.5837C14.5 14.2308 14.353 13.8931 14.1211 13.6482V13.6472L14.1123 13.6384L14.0098 13.5466C13.762 13.3488 13.4554 13.2606 13.167 13.2605ZM7.84863 10.4412C7.34841 10.2249 6.76316 10.346 6.3877 10.7214L6.37891 10.7312C6.1469 10.9761 6 11.3137 6 11.6667C6.00004 12.0197 6.14693 12.3574 6.37891 12.6023L6.3877 12.6121L6.39746 12.6208C6.64228 12.8528 6.98009 12.9997 7.33301 12.9998C7.68604 12.9998 8.02366 12.8529 8.26855 12.6208L8.27832 12.6121L8.28809 12.6023C8.52006 12.3574 8.66696 12.0197 8.66699 11.6667C8.66699 11.3578 8.5546 11.0604 8.37109 10.8269L8.28809 10.7312L8.27832 10.7214L8.17773 10.6306C8.07772 10.5507 7.96624 10.4887 7.84766 10.4412H7.84863ZM11.1221 10.6541C10.7716 10.3537 10.275 10.2513 9.8291 10.4041L9.75391 10.4333C9.62853 10.4816 9.51133 10.5467 9.40625 10.6306L9.30469 10.7214L9.29492 10.7312C9.06307 10.9761 8.91699 11.3138 8.91699 11.6667C8.91703 12.0197 9.06302 12.3574 9.29492 12.6023L9.30469 12.6121L9.31445 12.6208C9.55935 12.8529 9.89696 12.9998 10.25 12.9998C10.3011 12.9998 10.3495 12.9956 10.3906 12.991L10.4873 12.9783L10.499 12.9763C10.5785 12.9631 10.6532 12.9381 10.7246 12.908C10.8222 12.8754 10.9122 12.8288 10.9941 12.7742L11.0117 12.7625L11.0293 12.7488C11.0709 12.7155 11.1127 12.6825 11.1543 12.6492L11.1807 12.6267L11.2051 12.6023C11.437 12.3574 11.583 12.0197 11.583 11.6667C11.583 11.3138 11.4369 10.9761 11.2051 10.7312L11.1953 10.7214L11.1221 10.6541ZM13.415 10.3572C13.1905 10.3151 12.959 10.3284 12.7412 10.405L12.6465 10.4431C12.4773 10.5121 12.3491 10.6049 12.2402 10.7029L12.2256 10.7166L12.2119 10.7312C11.98 10.9761 11.833 11.3138 11.833 11.6667C11.833 12.0197 11.9799 12.3574 12.2119 12.6023L12.2217 12.6121L12.2314 12.6208C12.4763 12.8529 12.814 12.9998 13.167 12.9998C13.2131 12.9997 13.2602 12.9965 13.3018 12.9919L13.4043 12.9783L13.416 12.9763C13.4954 12.963 13.5702 12.9381 13.6416 12.908C13.7392 12.8754 13.8292 12.8288 13.9111 12.7742L13.9287 12.7625L13.9453 12.7488L14.0703 12.6492L14.0977 12.6267L14.1211 12.6023C14.3531 12.3574 14.5 12.0197 14.5 11.6667C14.5 11.3137 14.3531 10.9761 14.1211 10.7312L14.0977 10.7058L14.0703 10.6843L13.9453 10.5847L13.9287 10.571L13.9111 10.5593L13.7822 10.4841L13.6416 10.4255C13.5746 10.3973 13.5048 10.3737 13.4307 10.3601H13.4316C13.4291 10.3596 13.4264 10.3586 13.4238 10.3582C13.4212 10.3577 13.4186 10.3576 13.416 10.3572H13.415Z" fill="#191A23" stroke="#191A23"/>
</svg>
