<svg width="20" height="20" viewBox="0 0 20 20" fill="none" xmlns="http://www.w3.org/2000/svg">
<path d="M18.3082 15.2751C18.3082 15.5751 18.2415 15.8834 18.0998 16.1834C17.9582 16.4834 17.7748 16.7667 17.5332 17.0334C17.1248 17.4834 16.6748 17.8084 16.1665 18.0167C15.6665 18.2251 15.1248 18.3334 14.5415 18.3334C13.6915 18.3334 12.7832 18.1334 11.8248 17.7251C10.8665 17.3167 9.90817 16.7667 8.95817 16.0751C7.99984 15.3751 7.0915 14.6001 6.22484 13.7417C5.3665 12.8751 4.5915 11.9667 3.89984 11.0167C3.2165 10.0667 2.6665 9.11675 2.2665 8.17508C1.8665 7.22508 1.6665 6.31675 1.6665 5.45008C1.6665 4.88341 1.7665 4.34175 1.9665 3.84175C2.1665 3.33341 2.48317 2.86675 2.92484 2.45008C3.45817 1.92508 4.0415 1.66675 4.65817 1.66675C4.8915 1.66675 5.12484 1.71675 5.33317 1.81675C5.54984 1.91675 5.7415 2.06675 5.8915 2.28341L7.82484 5.00842C7.97484 5.21675 8.08317 5.40841 8.15817 5.59175C8.23317 5.76675 8.27484 5.94175 8.27484 6.10008C8.27484 6.30008 8.2165 6.50008 8.09984 6.69175C7.9915 6.88341 7.83317 7.08341 7.63317 7.28341L6.99984 7.94175C6.90817 8.03341 6.8665 8.14175 6.8665 8.27508C6.8665 8.34175 6.87484 8.40008 6.8915 8.46675C6.9165 8.53341 6.9415 8.58341 6.95817 8.63341C7.10817 8.90841 7.3665 9.26675 7.73317 9.70008C8.10817 10.1334 8.50817 10.5751 8.9415 11.0167C9.3915 11.4584 9.82484 11.8667 10.2665 12.2417C10.6998 12.6084 11.0582 12.8584 11.3415 13.0084C11.3832 13.0251 11.4332 13.0501 11.4915 13.0751C11.5582 13.1001 11.6248 13.1084 11.6998 13.1084C11.8415 13.1084 11.9498 13.0584 12.0415 12.9667L12.6748 12.3417C12.8832 12.1334 13.0832 11.9751 13.2748 11.8751C13.4665 11.7584 13.6582 11.7001 13.8665 11.7001C14.0248 11.7001 14.1915 11.7334 14.3748 11.8084C14.5582 11.8834 14.7498 11.9917 14.9582 12.1334L17.7165 14.0917C17.9332 14.2417 18.0832 14.4167 18.1748 14.6251C18.2582 14.8334 18.3082 15.0417 18.3082 15.2751Z" stroke="#B592FF" stroke-width="1.5" stroke-miterlimit="10"/>
</svg>
