<svg width="32" height="32" viewBox="0 0 32 32" fill="none" xmlns="http://www.w3.org/2000/svg">
<path d="M0 16C0 7.16344 7.16344 0 16 0C24.8366 0 32 7.16344 32 16C32 24.8366 24.8366 32 16 32C7.16344 32 0 24.8366 0 16Z" fill="#191A23"/>
<path d="M19.915 17.0416L20.3709 14.1448H17.5623V12.2618C17.5623 11.4697 17.9544 10.6957 19.2083 10.6957H20.5031V8.22881C19.7491 8.10857 18.9871 8.04351 18.2234 8.03418C15.9118 8.03418 14.4027 9.42377 14.4027 11.9359V14.1448H11.8403V17.0416H14.4027V24.0484H17.5623V17.0416H19.915Z" fill="white"/>
</svg>
