<svg width="20" height="20" viewBox="0 0 20 20" fill="none" xmlns="http://www.w3.org/2000/svg">
<path d="M7.49984 18.3334H12.4998C16.6665 18.3334 18.3332 16.6667 18.3332 12.5001V7.50008C18.3332 3.33341 16.6665 1.66675 12.4998 1.66675H7.49984C3.33317 1.66675 1.6665 3.33341 1.6665 7.50008V12.5001C1.6665 16.6667 3.33317 18.3334 7.49984 18.3334Z" stroke="#191A23" stroke-width="1.5" stroke-linecap="round" stroke-linejoin="round"/>
<path d="M7.50016 8.33333C8.42064 8.33333 9.16683 7.58714 9.16683 6.66667C9.16683 5.74619 8.42064 5 7.50016 5C6.57969 5 5.8335 5.74619 5.8335 6.66667C5.8335 7.58714 6.57969 8.33333 7.50016 8.33333Z" stroke="#191A23" stroke-width="1.5" stroke-linecap="round" stroke-linejoin="round"/>
<path d="M2.2251 15.7916L6.33343 13.0332C6.99176 12.5916 7.94176 12.6416 8.53343 13.1499L8.80843 13.3916C9.45843 13.9499 10.5084 13.9499 11.1584 13.3916L14.6251 10.4166C15.2751 9.85822 16.3251 9.85822 16.9751 10.4166L18.3334 11.5832" stroke="#191A23" stroke-width="1.5" stroke-linecap="round" stroke-linejoin="round"/>
</svg>
