<svg width="20" height="20" viewBox="0 0 20 20" fill="none" xmlns="http://www.w3.org/2000/svg">
<path d="M18.3333 7.10008V3.31675C18.3333 2.14175 17.8 1.66675 16.475 1.66675H13.1083C11.7833 1.66675 11.25 2.14175 11.25 3.31675V7.09175C11.25 8.27508 11.7833 8.74175 13.1083 8.74175H16.475C17.8 8.75008 18.3333 8.27508 18.3333 7.10008Z" fill="#191A23"/>
<path d="M18.3333 16.475V13.1083C18.3333 11.7833 17.8 11.25 16.475 11.25H13.1083C11.7833 11.25 11.25 11.7833 11.25 13.1083V16.475C11.25 17.8 11.7833 18.3333 13.1083 18.3333H16.475C17.8 18.3333 18.3333 17.8 18.3333 16.475Z" fill="#191A23"/>
<path d="M8.75008 7.10008V3.31675C8.75008 2.14175 8.21675 1.66675 6.89175 1.66675H3.52508C2.20008 1.66675 1.66675 2.14175 1.66675 3.31675V7.09175C1.66675 8.27508 2.20008 8.74175 3.52508 8.74175H6.89175C8.21675 8.75008 8.75008 8.27508 8.75008 7.10008Z" fill="#191A23"/>
<path d="M8.75008 16.475V13.1083C8.75008 11.7833 8.21675 11.25 6.89175 11.25H3.52508C2.20008 11.25 1.66675 11.7833 1.66675 13.1083V16.475C1.66675 17.8 2.20008 18.3333 3.52508 18.3333H6.89175C8.21675 18.3333 8.75008 17.8 8.75008 16.475Z" fill="#191A23"/>
</svg>
