<svg width="25" height="24" viewBox="0 0 25 24" fill="none" xmlns="http://www.w3.org/2000/svg">
<path d="M2.3335 22H22.3335" stroke="#191A23" stroke-width="1.5" stroke-miterlimit="10" stroke-linecap="round" stroke-linejoin="round"/>
<path d="M3.28369 22L3.33369 9.96999C3.33369 9.35999 3.62369 8.78004 4.10369 8.40004L11.1037 2.95003C11.8237 2.39003 12.8337 2.39003 13.5637 2.95003L20.5637 8.39003C21.0537 8.77003 21.3337 9.34999 21.3337 9.96999V22" stroke="#191A23" stroke-width="1.5" stroke-miterlimit="10" stroke-linejoin="round"/>
<path d="M13.3335 17H11.3335C10.5035 17 9.8335 17.67 9.8335 18.5V22H14.8335V18.5C14.8335 17.67 14.1635 17 13.3335 17Z" stroke="#191A23" stroke-width="1.5" stroke-miterlimit="10" stroke-linejoin="round"/>
<path d="M9.8335 13.75H7.8335C7.2835 13.75 6.8335 13.3 6.8335 12.75V11.25C6.8335 10.7 7.2835 10.25 7.8335 10.25H9.8335C10.3835 10.25 10.8335 10.7 10.8335 11.25V12.75C10.8335 13.3 10.3835 13.75 9.8335 13.75Z" stroke="#191A23" stroke-width="1.5" stroke-miterlimit="10" stroke-linejoin="round"/>
<path d="M16.8335 13.75H14.8335C14.2835 13.75 13.8335 13.3 13.8335 12.75V11.25C13.8335 10.7 14.2835 10.25 14.8335 10.25H16.8335C17.3835 10.25 17.8335 10.7 17.8335 11.25V12.75C17.8335 13.3 17.3835 13.75 16.8335 13.75Z" stroke="#191A23" stroke-width="1.5" stroke-miterlimit="10" stroke-linejoin="round"/>
<path d="M19.3333 7L19.3033 4H14.9033" stroke="#191A23" stroke-width="1.5" stroke-miterlimit="10" stroke-linecap="round" stroke-linejoin="round"/>
</svg>
