<svg width="20" height="20" viewBox="0 0 20 20" fill="none" xmlns="http://www.w3.org/2000/svg">
<path d="M1.66675 18.3333H18.3334" stroke="currentColor" stroke-width="1.5" stroke-miterlimit="10" stroke-linecap="round" stroke-linejoin="round"/>
<path d="M2.45825 18.3334L2.49992 8.30836C2.49992 7.80003 2.74159 7.31674 3.14159 7.00008L8.97492 2.4584C9.57492 1.99173 10.4166 1.99173 11.0249 2.4584L16.8583 6.99173C17.2666 7.3084 17.4999 7.7917 17.4999 8.30836V18.3334" stroke="currentColor" stroke-width="1.5" stroke-miterlimit="10" stroke-linejoin="round"/>
<path d="M10.8334 14.1667H9.16675C8.47508 14.1667 7.91675 14.7251 7.91675 15.4167V18.3334H12.0834V15.4167C12.0834 14.7251 11.5251 14.1667 10.8334 14.1667Z" stroke="currentColor" stroke-width="1.5" stroke-miterlimit="10" stroke-linejoin="round"/>
<path d="M7.91675 11.4584H6.25008C5.79175 11.4584 5.41675 11.0834 5.41675 10.6251V9.37508C5.41675 8.91675 5.79175 8.54175 6.25008 8.54175H7.91675C8.37508 8.54175 8.75008 8.91675 8.75008 9.37508V10.6251C8.75008 11.0834 8.37508 11.4584 7.91675 11.4584Z" stroke="currentColor" stroke-width="1.5" stroke-miterlimit="10" stroke-linejoin="round"/>
<path d="M13.75 11.4584H12.0833C11.625 11.4584 11.25 11.0834 11.25 10.6251V9.37508C11.25 8.91675 11.625 8.54175 12.0833 8.54175H13.75C14.2083 8.54175 14.5833 8.91675 14.5833 9.37508V10.6251C14.5833 11.0834 14.2083 11.4584 13.75 11.4584Z" stroke="currentColor" stroke-width="1.5" stroke-miterlimit="10" stroke-linejoin="round"/>
<path d="M15.8333 5.83325L15.8083 3.33325H12.1416" stroke="currentColor" stroke-width="1.5" stroke-miterlimit="10" stroke-linecap="round" stroke-linejoin="round"/>
</svg>
