<svg width="32" height="32" viewBox="0 0 32 32" fill="none" xmlns="http://www.w3.org/2000/svg">
<path d="M0 16C0 7.16344 7.16344 0 16 0C24.8366 0 32 7.16344 32 16C32 24.8366 24.8366 32 16 32C7.16344 32 0 24.8366 0 16Z" fill="#191A23"/>
<path d="M13.337 16.041C13.337 14.567 14.5312 13.3718 16.0048 13.3718C17.4784 13.3718 18.6733 14.567 18.6733 16.041C18.6733 17.5151 17.4784 18.7103 16.0048 18.7103C14.5312 18.7103 13.337 17.5151 13.337 16.041ZM11.8944 16.041C11.8944 18.3119 13.7346 20.1526 16.0048 20.1526C18.275 20.1526 20.1152 18.3119 20.1152 16.041C20.1152 13.7702 18.275 11.9295 16.0048 11.9295C13.7346 11.9295 11.8944 13.7702 11.8944 16.041ZM19.3173 11.7665C19.3172 11.9565 19.3735 12.1423 19.479 12.3004C19.5845 12.4584 19.7344 12.5816 19.9099 12.6544C20.0854 12.7272 20.2786 12.7463 20.4649 12.7093C20.6513 12.6723 20.8225 12.5809 20.9568 12.4465C21.0912 12.3122 21.1828 12.1411 21.2199 11.9547C21.2571 11.7683 21.2381 11.5751 21.1655 11.3995C21.0929 11.2239 20.9698 11.0738 20.8119 10.9681C20.654 10.8625 20.4683 10.8061 20.2783 10.806H20.2779C20.0232 10.8061 19.779 10.9073 19.5989 11.0874C19.4188 11.2675 19.3175 11.5117 19.3173 11.7665ZM12.7709 22.5586C11.9904 22.5231 11.5662 22.3931 11.2843 22.2832C10.9106 22.1377 10.644 21.9643 10.3636 21.6843C10.0832 21.4042 9.90969 21.1377 9.76483 20.7639C9.65494 20.482 9.52495 20.0576 9.48947 19.2769C9.45066 18.4329 9.44291 18.1794 9.44291 16.0411C9.44291 13.9028 9.4513 13.65 9.48947 12.8053C9.52501 12.0246 9.65597 11.601 9.76483 11.3183C9.91033 10.9445 10.0836 10.6778 10.3636 10.3973C10.6436 10.1169 10.91 9.94328 11.2843 9.79838C11.5661 9.68846 11.9904 9.55843 12.7709 9.52294C13.6146 9.48412 13.8681 9.47637 16.0048 9.47637C18.1415 9.47637 18.3952 9.48476 19.2397 9.52294C20.0201 9.55849 20.4436 9.68949 20.7262 9.79838C21.1 9.94328 21.3666 10.1173 21.647 10.3973C21.9273 10.6774 22.1002 10.9445 22.2457 11.3183C22.3556 11.6002 22.4856 12.0246 22.5211 12.8053C22.5599 13.65 22.5676 13.9028 22.5676 16.0411C22.5676 18.1794 22.5599 18.4322 22.5211 19.2769C22.4856 20.0576 22.3549 20.4819 22.2457 20.7639C22.1002 21.1377 21.9269 21.4045 21.647 21.6843C21.367 21.9641 21.1 22.1377 20.7262 22.2832C20.4445 22.3931 20.0201 22.5232 19.2397 22.5586C18.3959 22.5975 18.1425 22.6052 16.0048 22.6052C13.8671 22.6052 13.6144 22.5975 12.7709 22.5586ZM12.7046 8.08243C11.8524 8.12125 11.2701 8.25641 10.7616 8.45434C10.2349 8.65875 9.7891 8.93297 9.34359 9.37791C8.89807 9.82285 8.62463 10.2695 8.42028 10.7963C8.22241 11.3053 8.08728 11.8875 8.04848 12.7399C8.00903 13.5936 8 13.8666 8 16.041C8 18.2155 8.00903 18.4885 8.04848 19.3422C8.08728 20.1947 8.22241 20.7768 8.42028 21.2858C8.62463 21.8123 8.89814 22.2594 9.34359 22.7042C9.78904 23.1489 10.2349 23.4228 10.7616 23.6278C11.2711 23.8257 11.8524 23.9608 12.7046 23.9997C13.5585 24.0385 13.831 24.0482 16.0048 24.0482C18.1786 24.0482 18.4515 24.0391 19.305 23.9997C20.1572 23.9608 20.7392 23.8257 21.248 23.6278C21.7743 23.4228 22.2205 23.1491 22.666 22.7042C23.1115 22.2592 23.3844 21.8123 23.5893 21.2858C23.7872 20.7768 23.923 20.1946 23.9611 19.3422C23.9999 18.4878 24.009 18.2155 24.009 16.041C24.009 13.8666 23.9999 13.5936 23.9611 12.7399C23.9223 11.8874 23.7872 11.305 23.5893 10.7963C23.3844 10.2698 23.1108 9.82356 22.666 9.37791C22.2212 8.93227 21.7743 8.65875 21.2486 8.45434C20.7392 8.25641 20.1572 8.1206 19.3057 8.08243C18.4522 8.04361 18.1793 8.03394 16.0054 8.03394C13.8316 8.03394 13.5585 8.04297 12.7046 8.08243Z" fill="white"/>
</svg>
