<svg width="153" height="40" viewBox="0 0 153 40" fill="none" xmlns="http://www.w3.org/2000/svg">
<path fill-rule="evenodd" clip-rule="evenodd" d="M3.23117 14.5035C2.53467 16.0545 2.53467 17.8092 2.53467 21.3187V22.1271C2.53467 29.6097 2.53467 33.3509 4.85919 35.6755C7.18372 38 10.925 38 18.4075 38H22.3757C29.8583 38 33.5996 38 35.9241 35.6755C38.2486 33.3509 38.2486 29.6097 38.2486 22.1272V21.3187C38.2486 17.8092 38.2486 16.0545 37.5521 14.5035C36.8556 12.9525 35.5441 11.7867 32.9211 9.45514L30.937 7.69149C25.9184 3.2305 23.4091 1 20.3916 1C17.3742 1 14.8649 3.2305 9.84628 7.69149L7.86217 9.45514C5.23917 11.7867 3.92767 12.9525 3.23117 14.5035ZM10.3464 17.7831C9.93018 18.7299 9.93018 19.7961 9.93018 21.9283V22.154C9.93018 26.7955 9.93018 29.1162 11.3721 30.5582C12.814 32.0001 15.1348 32.0001 19.7763 32.0001H21.0071C25.6486 32.0001 27.9694 32.0001 29.4113 30.5582C30.8533 29.1162 30.8533 26.7955 30.8533 22.154V21.9283C30.8533 19.7961 30.8533 18.7299 30.437 17.7831C30.0208 16.8362 29.2353 16.1154 27.6643 14.6737L27.0489 14.109C23.8884 11.2089 22.3082 9.75879 20.3917 9.75879C18.4752 9.75879 16.895 11.2089 13.7346 14.109L13.1192 14.6737C11.5481 16.1154 10.7626 16.8362 10.3464 17.7831Z" fill="#191A23"/>
<mask id="mask0_4705_3013" style="mask-type:alpha" maskUnits="userSpaceOnUse" x="2" y="1" width="37" height="37">
<path fill-rule="evenodd" clip-rule="evenodd" d="M3.23117 14.5035C2.53467 16.0545 2.53467 17.8092 2.53467 21.3187V22.1271C2.53467 29.6097 2.53467 33.3509 4.85919 35.6755C7.18372 38 10.925 38 18.4075 38H22.3757C29.8583 38 33.5996 38 35.9241 35.6755C38.2486 33.3509 38.2486 29.6097 38.2486 22.1272V21.3187C38.2486 17.8092 38.2486 16.0545 37.5521 14.5035C36.8556 12.9525 35.5441 11.7867 32.9211 9.45514L30.937 7.69149C25.9184 3.2305 23.4091 1 20.3916 1C17.3742 1 14.8649 3.2305 9.84628 7.69149L7.86217 9.45514C5.23917 11.7867 3.92767 12.9525 3.23117 14.5035ZM10.3464 17.7831C9.93018 18.7299 9.93018 19.7961 9.93018 21.9283V22.154C9.93018 26.7955 9.93018 29.1162 11.3721 30.5582C12.814 32.0001 15.1348 32.0001 19.7763 32.0001H21.0071C25.6486 32.0001 27.9694 32.0001 29.4113 30.5582C30.8533 29.1162 30.8533 26.7955 30.8533 22.154V21.9283C30.8533 19.7961 30.8533 18.7299 30.437 17.7831C30.0208 16.8362 29.2353 16.1154 27.6643 14.6737L27.0489 14.109C23.8884 11.2089 22.3082 9.75879 20.3917 9.75879C18.4752 9.75879 16.895 11.2089 13.7346 14.109L13.1192 14.6737C11.5481 16.1154 10.7626 16.8362 10.3464 17.7831Z" fill="#B592FF"/>
</mask>
<g mask="url(#mask0_4705_3013)">
<circle cx="30.0347" cy="10.5" r="16.5" fill="#B592FF"/>
<path d="M15.0999 20.8047C16.9445 20.8047 17.8668 20.8047 18.628 20.9874C21.0463 21.568 22.9344 23.4562 23.515 25.8744C23.6978 26.6356 23.6978 27.5579 23.6978 29.4025C23.6978 31.2471 23.6978 32.1694 23.515 32.9305C22.9344 35.3488 21.0463 37.237 18.628 37.8176C17.8668 38.0003 16.9445 38.0003 15.0999 38.0003L13.1158 38.0003C9.41183 38.0003 7.55982 38.0003 6.14507 37.2794C4.90063 36.6454 3.88886 35.6336 3.25479 34.3892C2.53394 32.9744 2.53394 31.1224 2.53394 27.4184L2.53394 20.8047L15.0999 20.8047Z" fill="#FDA5D6"/>
</g>
<path d="M49.6358 20.0804H62.0394V22.6387H49.6358V20.0804ZM61.6001 13H64.5977V29.7449H61.6001V13ZM47 13H49.9717V29.7449H47V13Z" fill="#191A23"/>
<path d="M74.0791 30.0292C72.632 30.0292 71.34 29.7708 70.203 29.254C69.066 28.7372 68.1615 27.9791 67.4897 26.98C66.835 25.9808 66.5077 24.7663 66.5077 23.3364C66.5077 21.9237 66.835 20.7178 67.4897 19.7187C68.1615 18.7022 69.066 17.927 70.203 17.393C71.34 16.8589 72.632 16.5919 74.0791 16.5919C75.5262 16.5919 76.8096 16.8589 77.9294 17.393C79.0664 17.927 79.9622 18.7022 80.6169 19.7187C81.2715 20.7178 81.5988 21.9237 81.5988 23.3364C81.5988 24.7663 81.2715 25.9808 80.6169 26.98C79.9622 27.9791 79.0664 28.7372 77.9294 29.254C76.8096 29.7708 75.5262 30.0292 74.0791 30.0292ZM74.0791 27.6777C74.9233 27.6777 75.6899 27.514 76.379 27.1867C77.0681 26.8421 77.6193 26.3512 78.0328 25.7138C78.4462 25.0591 78.653 24.2667 78.653 23.3364C78.653 22.4233 78.4462 21.6395 78.0328 20.9849C77.6193 20.313 77.0681 19.8048 76.379 19.4602C75.7071 19.1157 74.9405 18.9434 74.0791 18.9434C73.2522 18.9434 72.4856 19.1157 71.7793 19.4602C71.0902 19.8048 70.5303 20.3044 70.0996 20.959C69.6862 21.6137 69.4794 22.4061 69.4794 23.3364C69.4794 24.2667 69.6862 25.0591 70.0996 25.7138C70.5131 26.3512 71.0643 26.8421 71.7534 27.1867C72.4597 27.514 73.235 27.6777 74.0791 27.6777Z" fill="#191A23"/>
<path d="M83.1293 16.8761H86.0493V29.7449H83.1293V16.8761ZM91.5018 16.5919C92.2598 16.5919 92.9575 16.6953 93.5949 16.902C94.2323 17.1087 94.775 17.4274 95.2229 17.8581C95.688 18.2716 96.0412 18.797 96.2824 19.4344C96.5408 20.0546 96.67 20.7867 96.67 21.6309V29.7449H93.75V22.1994C93.75 21.1485 93.4915 20.3733 92.9747 19.8737C92.4751 19.3569 91.6741 19.0985 90.5715 19.0985C89.7446 19.0985 88.9866 19.2794 88.2975 19.6411C87.6256 19.9857 87.0744 20.4422 86.6437 21.0107C86.213 21.562 85.9632 22.1649 85.8943 22.8196L85.8685 21.4242C85.9546 20.7867 86.1441 20.1838 86.437 19.6153C86.7298 19.0296 87.1174 18.5127 87.5998 18.0648C88.0822 17.5997 88.6507 17.2379 89.3053 16.9795C89.9772 16.7211 90.7093 16.5919 91.5018 16.5919ZM101.864 16.5919C102.622 16.5919 103.311 16.6953 103.931 16.902C104.569 17.1087 105.12 17.4274 105.585 17.8581C106.05 18.2716 106.412 18.797 106.67 19.4344C106.929 20.0546 107.058 20.7867 107.058 21.6309V29.7449H104.112V22.1994C104.112 21.1485 103.854 20.3733 103.337 19.8737C102.837 19.3569 102.036 19.0985 100.934 19.0985C100.107 19.0985 99.3488 19.2794 98.6597 19.6411C97.9706 19.9857 97.4108 20.4422 96.9801 21.0107C96.5666 21.562 96.3254 22.1649 96.2565 22.8196L96.2048 21.3725C96.291 20.7523 96.4891 20.1579 96.7992 19.5894C97.1093 19.0209 97.5055 18.5127 97.9879 18.0648C98.4875 17.5997 99.0646 17.2379 99.7192 16.9795C100.374 16.7211 101.089 16.5919 101.864 16.5919Z" fill="#191A23"/>
<path d="M120.026 25.507H122.843C122.705 26.3856 122.352 27.1695 121.784 27.8586C121.232 28.5304 120.492 29.0645 119.561 29.4607C118.631 29.8397 117.511 30.0292 116.202 30.0292C114.703 30.0292 113.377 29.7622 112.222 29.2281C111.068 28.6769 110.155 27.9016 109.483 26.9024C108.829 25.9033 108.501 24.7146 108.501 23.3364C108.501 21.9754 108.82 20.7867 109.457 19.7703C110.112 18.7539 111.008 17.9701 112.145 17.4188C113.282 16.8675 114.6 16.5919 116.099 16.5919C117.632 16.5919 118.915 16.8675 119.949 17.4188C121 17.9529 121.775 18.7625 122.275 19.8479C122.774 20.916 122.981 22.2683 122.895 23.9049H111.447C111.533 24.6284 111.774 25.2745 112.171 25.843C112.567 26.4115 113.101 26.8594 113.773 27.1867C114.445 27.514 115.237 27.6777 116.15 27.6777C117.149 27.6777 117.985 27.4796 118.657 27.0833C119.346 26.6699 119.802 26.1444 120.026 25.507ZM116.021 18.9434C114.832 18.9434 113.859 19.2277 113.101 19.7962C112.343 20.3647 111.852 21.0968 111.628 21.9927H119.975C119.889 21.0279 119.492 20.2785 118.786 19.7445C118.08 19.2104 117.158 18.9434 116.021 18.9434Z" fill="#191A23"/>
<path d="M136.024 19.2277L126.566 28.2979L126.23 27.4193H136.179V29.7449H124.059V27.4193L133.569 18.3232L133.931 19.2277H124.059V16.8761H136.024V19.2277Z" fill="#191A23"/>
<path d="M137.033 16.8761H140.134L145.38 29.2281L142.847 29.7449L137.033 16.8761ZM151.504 16.8761L143.183 34.9131H140.108L143.674 27.8586L148.377 16.8761H151.504Z" fill="#191A23"/>
</svg>
