<svg width="21" height="20" viewBox="0 0 21 20" fill="none" xmlns="http://www.w3.org/2000/svg">
<path d="M14.4165 1.66675H6.08317C3.78317 1.66675 1.9165 3.52508 1.9165 5.81675V10.8001V11.6334C1.9165 13.9251 3.78317 15.7834 6.08317 15.7834H7.33317C7.55817 15.7834 7.85817 15.9334 7.99984 16.1167L9.24984 17.7751C9.79984 18.5084 10.6998 18.5084 11.2498 17.7751L12.4998 16.1167C12.6582 15.9084 12.9082 15.7834 13.1665 15.7834H14.4165C16.7165 15.7834 18.5832 13.9251 18.5832 11.6334V5.81675C18.5832 3.52508 16.7165 1.66675 14.4165 1.66675ZM11.0832 11.4584H6.08317C5.7415 11.4584 5.45817 11.1751 5.45817 10.8334C5.45817 10.4917 5.7415 10.2084 6.08317 10.2084H11.0832C11.4248 10.2084 11.7082 10.4917 11.7082 10.8334C11.7082 11.1751 11.4248 11.4584 11.0832 11.4584ZM14.4165 7.29175H6.08317C5.7415 7.29175 5.45817 7.00842 5.45817 6.66675C5.45817 6.32508 5.7415 6.04175 6.08317 6.04175H14.4165C14.7582 6.04175 15.0415 6.32508 15.0415 6.66675C15.0415 7.00842 14.7582 7.29175 14.4165 7.29175Z" fill="currentColor"/>
</svg>
