<svg width="24" height="24" viewBox="0 0 24 24" fill="none" xmlns="http://www.w3.org/2000/svg">
<path d="M17.49 9.59989L5.6 16.7699C4.9 17.1899 4 16.6899 4 15.8699V7.86989C4 4.37989 7.77 2.19989 10.8 3.93989L15.39 6.57989L17.48 7.77989C18.17 8.18989 18.18 9.18989 17.49 9.59989Z" fill="#191A23"/>
<path d="M18.7871 11.1086C19.1048 10.9181 19.4857 11.1129 19.5361 11.429V11.4299C19.7561 12.7949 19.1931 14.2501 17.8408 15.0266H17.8398L13.79 17.3665L9.75098 19.6956C8.4776 20.4244 7.04661 20.2745 6.00781 19.5413L6.00391 19.5383L5.95996 19.5032C5.756 19.3131 5.76541 18.913 6.07422 18.7307L6.07715 18.7288L18.7871 11.1086Z" fill="#191A23" stroke="#191A23"/>
</svg>
