<svg width="16" height="16" viewBox="0 0 16 16" fill="none" xmlns="http://www.w3.org/2000/svg">
<path fill-rule="evenodd" clip-rule="evenodd" d="M9.59977 1.6001C9.77632 1.60004 9.94793 1.65839 10.0879 1.76605C10.2278 1.87371 10.3282 2.02463 10.3734 2.1953L11.3166 5.7601L13.9998 7.3073C14.1214 7.37751 14.2224 7.4785 14.2926 7.60011C14.3628 7.72173 14.3997 7.85967 14.3997 8.0001C14.3997 8.14052 14.3628 8.27847 14.2926 8.40008C14.2224 8.52169 14.1214 8.62268 13.9998 8.6929L11.3166 10.2409L10.3726 13.8049C10.3273 13.9754 10.2269 14.1262 10.0871 14.2337C9.94725 14.3413 9.77578 14.3996 9.59937 14.3996C9.42296 14.3996 9.25149 14.3413 9.11165 14.2337C8.97182 14.1262 8.87145 13.9754 8.82617 13.8049L7.88297 10.2401L5.19977 8.6929C5.07816 8.62268 4.97718 8.52169 4.90697 8.40008C4.83677 8.27847 4.7998 8.14052 4.7998 8.0001C4.7998 7.85967 4.83677 7.72173 4.90697 7.60011C4.97718 7.4785 5.07816 7.37751 5.19977 7.3073L7.88297 5.7593L8.82697 2.1953C8.87213 2.02476 8.9724 1.87394 9.11216 1.76629C9.25193 1.65865 9.42336 1.60022 9.59977 1.6001Z" fill="white"/>
<path d="M4.56578 9.83441C4.41575 9.68438 4.21227 9.6001 4.0001 9.6001C3.78792 9.6001 3.58444 9.68438 3.43441 9.83441C3.28438 9.98444 3.2001 10.1879 3.2001 10.4001V11.2001H2.4001C2.18792 11.2001 1.98444 11.2844 1.83441 11.4344C1.68438 11.5844 1.6001 11.7879 1.6001 12.0001C1.6001 12.2123 1.68438 12.4158 1.83441 12.5658C1.98444 12.7158 2.18792 12.8001 2.4001 12.8001H3.2001V13.6001C3.2001 13.8123 3.28438 14.0158 3.43441 14.1658C3.58444 14.3158 3.78792 14.4001 4.0001 14.4001C4.21227 14.4001 4.41575 14.3158 4.56578 14.1658C4.71581 14.0158 4.8001 13.8123 4.8001 13.6001V12.8001H5.6001C5.81227 12.8001 6.01575 12.7158 6.16578 12.5658C6.31581 12.4158 6.4001 12.2123 6.4001 12.0001C6.4001 11.7879 6.31581 11.5844 6.16578 11.4344C6.01575 11.2844 5.81227 11.2001 5.6001 11.2001H4.8001V10.4001C4.8001 10.1879 4.71581 9.98444 4.56578 9.83441Z" fill="white"/>
<path d="M4.56578 1.83441C4.41575 1.68438 4.21227 1.6001 4.0001 1.6001C3.78792 1.6001 3.58444 1.68438 3.43441 1.83441C3.28438 1.98444 3.2001 2.18792 3.2001 2.4001V3.2001H2.4001C2.18792 3.2001 1.98444 3.28438 1.83441 3.43441C1.68438 3.58444 1.6001 3.78792 1.6001 4.0001C1.6001 4.21227 1.68438 4.41575 1.83441 4.56578C1.98444 4.71581 2.18792 4.8001 2.4001 4.8001H3.2001V5.6001C3.2001 5.81227 3.28438 6.01575 3.43441 6.16578C3.58444 6.31581 3.78792 6.4001 4.0001 6.4001C4.21227 6.4001 4.41575 6.31581 4.56578 6.16578C4.71581 6.01575 4.8001 5.81227 4.8001 5.6001V4.8001H5.6001C5.81227 4.8001 6.01575 4.71581 6.16578 4.56578C6.31581 4.41575 6.4001 4.21227 6.4001 4.0001C6.4001 3.78792 6.31581 3.58444 6.16578 3.43441C6.01575 3.28438 5.81227 3.2001 5.6001 3.2001H4.8001V2.4001C4.8001 2.18792 4.71581 1.98444 4.56578 1.83441Z" fill="white"/>
</svg>
