<svg width="32" height="32" viewBox="0 0 32 32" fill="none" xmlns="http://www.w3.org/2000/svg">
<path d="M0 16C0 7.16344 7.16344 0 16 0C24.8366 0 32 7.16344 32 16C32 24.8366 24.8366 32 16 32C7.16344 32 0 24.8366 0 16Z" fill="#191A23"/>
<path d="M23.9421 10.9339C23.4137 11.1614 22.8582 11.3199 22.2894 11.4054C22.5553 11.3598 22.9467 10.8806 23.1024 10.6867C23.3391 10.3941 23.5195 10.0602 23.6343 9.70179C23.6343 9.67517 23.6609 9.63714 23.6343 9.61813C23.6209 9.61081 23.6059 9.60697 23.5907 9.60697C23.5754 9.60697 23.5604 9.61081 23.547 9.61813C22.9293 9.95292 22.2719 10.2085 21.5903 10.3787C21.5666 10.3859 21.5413 10.3866 21.5172 10.3805C21.4931 10.3745 21.4711 10.362 21.4536 10.3444C21.4005 10.2812 21.3434 10.2215 21.2826 10.1657C21.0046 9.91643 20.6892 9.7124 20.348 9.56109C19.8873 9.37194 19.3897 9.29002 18.8928 9.32152C18.4107 9.352 17.9399 9.48144 17.5099 9.70179C17.0864 9.9341 16.7142 10.2497 16.4157 10.6296C16.1017 11.0207 15.875 11.4745 15.7508 11.9606C15.6484 12.4229 15.6368 12.9008 15.7166 13.3676C15.7166 13.4474 15.7166 13.4588 15.6482 13.4474C12.9393 13.0481 10.7167 12.0861 8.90068 10.0212C8.8209 9.92995 8.77911 9.92995 8.71452 10.0212C7.92426 11.2229 8.30799 13.1242 9.29581 14.0635C9.42879 14.1889 9.56556 14.3106 9.70993 14.4247C9.25703 14.3925 8.81518 14.2697 8.41057 14.0635C8.33459 14.014 8.2928 14.0406 8.289 14.1319C8.27823 14.2584 8.27823 14.3856 8.289 14.5122C8.36827 15.1185 8.60703 15.693 8.98085 16.1767C9.35467 16.6604 9.85014 17.0361 10.4166 17.2653C10.5547 17.3245 10.6986 17.3691 10.8459 17.3984C10.4266 17.481 9.99662 17.4939 9.57316 17.4364C9.48198 17.4174 9.44778 17.4668 9.48198 17.5543C10.0405 19.0754 11.2524 19.5393 12.1415 19.7979C12.2631 19.8169 12.3846 19.8169 12.5214 19.8473C12.5214 19.8473 12.5214 19.8473 12.4986 19.8701C12.2365 20.3493 11.1765 20.6725 10.6902 20.8398C9.80251 21.1589 8.85612 21.2809 7.91667 21.1973C7.76849 21.1744 7.7343 21.1783 7.69631 21.1973C7.65831 21.2163 7.69631 21.2581 7.7381 21.2961C7.92806 21.4216 8.11803 21.5319 8.31559 21.6384C8.90374 21.9595 9.52553 22.2145 10.1696 22.3989C13.5054 23.3192 17.2591 22.6423 19.7629 20.1515C21.7309 18.197 22.4224 15.5009 22.4224 12.801C22.4224 12.6983 22.5477 12.6375 22.6199 12.5842C23.1178 12.1959 23.5568 11.7374 23.9231 11.2229C23.9865 11.1462 24.0191 11.0485 24.0143 10.9491C24.0143 10.892 24.0143 10.9034 23.9421 10.9339Z" fill="white"/>
</svg>
